<?xml version="1.0" standalone="no"?>
<!DOCTYPE svg PUBLIC "-//W3C//DTD SVG 20010904//EN"
 "http://www.w3.org/TR/2001/REC-SVG-20010904/DTD/svg10.dtd">
<svg version="1.0" xmlns="http://www.w3.org/2000/svg"
 width="420.000000pt" height="83.000000pt" viewBox="0 0 420.000000 83.000000"
 preserveAspectRatio="xMidYMid meet">

<g transform="translate(0.000000,83.000000) scale(0.100000,-0.100000)"
fill="#000000" stroke="none">
<path d="M595 791 c-42 -10 -65 -25 -99 -60 -23 -24 -38 -31 -66 -31 -104 0
-215 -82 -244 -181 -21 -69 -20 -122 4 -189 11 -30 19 -61 20 -69 0 -7 -25
-49 -56 -93 -31 -44 -53 -82 -51 -85 3 -2 43 21 89 51 45 31 88 56 94 56 7 0
31 -9 55 -20 54 -24 138 -26 203 -4 95 32 176 145 176 244 0 28 8 43 36 71 62
59 78 125 49 197 -37 86 -124 133 -210 113z m118 -112 c15 -16 27 -41 27 -55
0 -65 -63 -121 -125 -110 -89 17 -107 147 -25 189 45 22 87 14 123 -24z m-255
-87 c3 -17 -11 -38 -47 -77 -60 -64 -67 -104 -26 -149 39 -42 85 -36 144 19
36 34 56 45 80 45 27 0 31 -3 31 -27 0 -39 -38 -100 -83 -137 -31 -25 -49 -31
-102 -34 -52 -4 -70 0 -104 19 -111 62 -134 226 -43 311 64 60 144 76 150 30z"/>
<path d="M4032 498 l3 -193 24 -3 c12 -2 34 -1 47 2 l24 6 -2 188 -3 187 -48
3 -47 3 2 -193z"/>
<path d="M2240 420 l0 -250 45 0 44 0 3 67 c2 39 8 68 15 70 6 2 35 -27 65
-66 l53 -70 53 0 c28 -1 52 2 52 5 0 3 -31 43 -70 89 -38 46 -70 92 -70 102 0
10 29 42 65 71 72 59 81 78 34 68 -17 -3 -47 -6 -65 -6 -25 0 -45 -10 -73 -35
-21 -19 -44 -35 -50 -35 -7 0 -11 38 -11 120 l0 120 -45 0 -45 0 0 -250z"/>
<path d="M1716 644 c-20 -19 -20 -24 0 -52 26 -37 84 -24 84 19 0 23 -27 49
-50 49 -10 0 -26 -7 -34 -16z"/>
<path d="M2825 636 c-13 -20 -14 -29 -5 -47 11 -20 9 -53 -5 -91 -6 -14 -2
-18 19 -18 20 0 33 12 61 52 41 61 44 91 13 112 -33 23 -65 20 -83 -8z"/>
<path d="M1458 605 c-4 -4 -4 -23 -1 -42 5 -30 2 -38 -22 -57 -22 -18 -27 -28
-22 -48 4 -14 16 -28 27 -31 18 -5 20 -13 20 -100 0 -87 2 -98 25 -125 49 -58
145 -52 145 9 0 28 -3 30 -23 25 -43 -10 -55 11 -59 104 l-3 85 40 5 c36 5 40
8 43 37 3 30 1 32 -35 35 -38 3 -38 3 -43 53 l-5 50 -40 3 c-23 2 -44 0 -47
-3z"/>
<path d="M1175 494 c-42 -23 -55 -42 -55 -85 0 -53 51 -93 143 -114 22 -4 28
-11 25 -27 -5 -33 -40 -40 -87 -16 -40 20 -43 20 -61 3 -28 -25 -25 -42 11
-64 96 -59 223 -16 223 76 0 43 -23 65 -97 88 -61 20 -82 37 -74 59 8 20 65
21 91 1 18 -13 22 -13 43 7 32 30 29 43 -14 63 -52 25 -112 29 -148 9z"/>
<path d="M1715 502 c-3 -3 -5 -79 -5 -169 l0 -163 45 0 45 0 0 165 c0 91 -3
165 -7 166 -5 0 -22 2 -40 3 -18 2 -35 1 -38 -2z"/>
<path d="M1949 487 c-112 -58 -117 -222 -8 -294 53 -35 135 -39 188 -8 45 27
47 37 11 63 l-30 23 -29 -22 c-78 -57 -164 48 -116 142 26 49 93 61 135 24 13
-11 19 -10 44 10 34 27 29 40 -28 66 -56 25 -113 24 -167 -4z"/>
<path d="M3075 498 c-65 -23 -98 -76 -98 -158 0 -90 43 -148 126 -171 22 -6
59 -8 82 -5 41 7 105 39 105 54 0 5 -14 18 -31 31 -27 20 -32 21 -47 8 -52
-47 -142 -16 -142 49 0 11 24 14 125 14 141 0 142 1 109 78 -38 93 -132 134
-229 100z m133 -82 c30 -29 7 -46 -62 -46 -66 0 -80 7 -70 33 14 36 100 45
132 13z"/>
<path d="M3386 502 c-3 -3 -6 -79 -6 -169 l0 -163 45 0 45 0 0 108 c0 135 9
156 70 160 64 5 70 -8 70 -150 l0 -118 45 0 45 0 0 113 c0 138 9 157 75 157
59 0 65 -13 65 -154 l0 -116 45 0 45 0 0 120 c0 145 -12 184 -64 205 -49 21
-89 19 -147 -6 -47 -21 -50 -21 -68 -4 -28 24 -90 30 -133 12 -23 -10 -39 -12
-46 -5 -11 11 -78 19 -86 10z"/>
<path d="M4034 235 c-11 -28 5 -64 32 -71 44 -11 83 43 52 74 -17 17 -77 15
-84 -3z"/>
</g>
</svg>
